<?xml version="1.0" encoding="UTF-8" standalone="no"?>
<!-- Created with Inkscape (http://www.inkscape.org/) -->

<svg
   xmlns:dc="http://purl.org/dc/elements/1.1/"
   xmlns:cc="http://creativecommons.org/ns#"
   xmlns:rdf="http://www.w3.org/1999/02/22-rdf-syntax-ns#"
   xmlns:svg="http://www.w3.org/2000/svg"
   xmlns="http://www.w3.org/2000/svg"
   xmlns:sodipodi="http://sodipodi.sourceforge.net/DTD/sodipodi-0.dtd"
   xmlns:inkscape="http://www.inkscape.org/namespaces/inkscape"
   width="128"
   height="128"
   viewBox="0 0 33.866666 33.866668"
   version="1.1"
   id="svg8"
   inkscape:version="0.92.4 (5da689c313, 2019-01-14)"
   sodipodi:docname="icon.svg">
  <defs
     id="defs2" />
  <sodipodi:namedview
     id="base"
     pagecolor="#ffffff"
     bordercolor="#666666"
     borderopacity="1.0"
     inkscape:pageopacity="0.0"
     inkscape:pageshadow="2"
     inkscape:zoom="2.8"
     inkscape:cx="0.12654308"
     inkscape:cy="92.309196"
     inkscape:document-units="px"
     inkscape:current-layer="layer1"
     showgrid="false"
     units="px"
     inkscape:window-width="1366"
     inkscape:window-height="705"
     inkscape:window-x="-8"
     inkscape:window-y="32"
     inkscape:window-maximized="1" />
  <metadata
     id="metadata5">
    <rdf:RDF>
      <cc:Work
         rdf:about="">
        <dc:format>image/svg+xml</dc:format>
        <dc:type
           rdf:resource="http://purl.org/dc/dcmitype/StillImage" />
        <dc:title />
      </cc:Work>
    </rdf:RDF>
  </metadata>
  <g
     inkscape:label="Calque 1"
     inkscape:groupmode="layer"
     id="layer1"
     transform="translate(0,-263.13332)">
    <path
       style="opacity:1;fill:none;fill-opacity:1;stroke:#71c837;stroke-width:1.58750002;stroke-linecap:round;stroke-linejoin:round;stroke-miterlimit:4;stroke-dasharray:none;stroke-opacity:1;paint-order:stroke fill markers"
       d="m 9.3528888,266.08282 c 0.4506774,-0.24483 0.9145122,-0.4685 1.3901722,-0.66969 1.902641,-0.80475 3.994489,-1.24976 6.190272,-1.24976 8.783135,0 15.903274,7.12014 15.903276,15.90328 3e-6,8.78314 -7.120137,15.90328 -15.903276,15.90328 -8.7831387,0 -15.9032784,-7.12014 -15.9032757,-15.90328 7e-7,-2.19579 0.4450098,-4.28763 1.2497596,-6.19028 0.4023748,-0.95132 0.894685,-1.85534 1.4662717,-2.7014"
       id="path815"
       inkscape:connector-curvature="0"
       sodipodi:nodetypes="cssssssc" />
    <path
       style="color:#000000;font-style:normal;font-variant:normal;font-weight:normal;font-stretch:normal;font-size:medium;line-height:normal;font-family:sans-serif;font-variant-ligatures:normal;font-variant-position:normal;font-variant-caps:normal;font-variant-numeric:normal;font-variant-alternates:normal;font-feature-settings:normal;text-indent:0;text-align:start;text-decoration:none;text-decoration-line:none;text-decoration-style:solid;text-decoration-color:#000000;letter-spacing:normal;word-spacing:normal;text-transform:none;writing-mode:lr-tb;direction:ltr;text-orientation:mixed;dominant-baseline:auto;baseline-shift:baseline;text-anchor:start;white-space:normal;shape-padding:0;clip-rule:nonzero;display:inline;overflow:visible;visibility:visible;opacity:1;isolation:auto;mix-blend-mode:normal;color-interpolation:sRGB;color-interpolation-filters:linearRGB;solid-color:#000000;solid-opacity:1;vector-effect:none;fill:#71c837;fill-opacity:1;fill-rule:nonzero;stroke:#71c837;stroke-width:0.52916667;stroke-linecap:round;stroke-linejoin:round;stroke-miterlimit:4;stroke-dasharray:none;stroke-dashoffset:0;stroke-opacity:1;color-rendering:auto;image-rendering:auto;shape-rendering:auto;text-rendering:auto;enable-background:accumulate;paint-order:stroke fill markers"
       d="m 4.1866618,263.99286 a 0.48442345,0.48442345 0 0 0 -0.4275257,0.70386 c 0,0 0.6931807,1.3659 1.2580469,3.11083 0.564866,1.74493 0.9554805,3.86312 0.499614,5.21091 -0.6039942,1.78571 0.2282989,3.63768 1.4377677,4.89652 0.6047345,0.62941 1.3116218,1.12247 2.0415099,1.40022 0.5746134,0.21865 1.1789104,0.30285 1.7386374,0.16971 0.607785,1.14532 2.62955,5.40696 2.859515,11.92265 a 0.48442345,0.48442345 0 0 0 0.940156,0.14218 c 0,0 1.608654,-4.60623 3.875265,-9.61783 1.133306,-2.5058 2.430657,-5.1114 3.765129,-7.28045 1.334471,-2.16904 2.728065,-3.89568 3.920319,-4.6357 a 0.48442345,0.48442345 0 0 0 -0.249807,-0.9006 0.48442345,0.48442345 0 0 0 -0.260821,0.0776 c -1.462437,0.90772 -2.865854,2.72667 -4.234706,4.95159 -1.368852,2.22493 -2.680421,4.85962 -3.824201,7.38858 -1.867153,4.12838 -2.728424,6.63867 -3.18792,7.91423 -0.533744,-5.51773 -2.194908,-9.26397 -2.755387,-10.40178 0.496772,-0.48224 0.698087,-1.29317 0.745917,-2.23175 0.05915,-1.16086 -0.152392,-2.59753 -0.669823,-4.13208 -1.034863,-3.06911 -3.3137547,-6.52716 -7.2389001,-8.63161 a 0.48442345,0.48442345 0 0 0 -0.2327861,-0.0571 z m 1.0497906,1.78269 c 2.8598741,1.97851 4.6614095,4.7147 5.5042666,7.21437 0.4838,1.43482 0.669739,2.77428 0.618761,3.77464 -0.05094,0.99959 -0.374394,1.58083 -0.606746,1.69509 -1.82e-4,9e-5 -3.18e-4,4.1e-4 -5e-4,5e-4 a 0.48462597,0.48462597 0 0 0 -0.007,0.003 c -0.356266,0.17105 -0.8451467,0.16039 -1.404727,-0.0526 -0.5631302,-0.21428 -1.1709305,-0.6297 -1.6875746,-1.16743 -1.0332885,-1.07546 -1.6672268,-2.58764 -1.2184982,-3.91431 0.5968564,-1.76463 0.095231,-3.99499 -0.4956092,-5.82016 -0.3150123,-0.97311 -0.4411636,-1.14254 -0.7023636,-1.73313 z"
       id="path1367"
       inkscape:connector-curvature="0" />
  </g>
</svg>
