<?xml version="1.0" encoding="UTF-8" standalone="no"?>
<!-- Created with Inkscape (http://www.inkscape.org/) -->

<svg
   xmlns:dc="http://purl.org/dc/elements/1.1/"
   xmlns:cc="http://creativecommons.org/ns#"
   xmlns:rdf="http://www.w3.org/1999/02/22-rdf-syntax-ns#"
   xmlns:svg="http://www.w3.org/2000/svg"
   xmlns="http://www.w3.org/2000/svg"
   xmlns:sodipodi="http://sodipodi.sourceforge.net/DTD/sodipodi-0.dtd"
   xmlns:inkscape="http://www.inkscape.org/namespaces/inkscape"
   width="64"
   height="64"
   viewBox="0 0 16.933333 16.933334"
   version="1.1"
   id="svg8"
   inkscape:version="0.92.4 (5da689c313, 2019-01-14)"
   sodipodi:docname="Pin-psyca-vgl.svg">
  <defs
     id="defs2" />
  <sodipodi:namedview
     id="base"
     pagecolor="#ffffff"
     bordercolor="#666666"
     borderopacity="1.0"
     inkscape:pageopacity="0.0"
     inkscape:pageshadow="2"
     inkscape:zoom="2.8"
     inkscape:cx="-38.300136"
     inkscape:cy="17.168169"
     inkscape:document-units="px"
     inkscape:current-layer="layer1"
     showgrid="false"
     units="px"
     inkscape:pagecheckerboard="true"
     objecttolerance="20"
     inkscape:window-width="1366"
     inkscape:window-height="705"
     inkscape:window-x="-8"
     inkscape:window-y="32"
     inkscape:window-maximized="1">
    <inkscape:grid
       type="xygrid"
       id="grid3725" />
  </sodipodi:namedview>
  <metadata
     id="metadata5">
    <rdf:RDF>
      <cc:Work
         rdf:about="">
        <dc:format>image/svg+xml</dc:format>
        <dc:type
           rdf:resource="http://purl.org/dc/dcmitype/StillImage" />
        <dc:title />
      </cc:Work>
    </rdf:RDF>
  </metadata>
  <g
     inkscape:label="Calque 1"
     inkscape:groupmode="layer"
     id="layer1"
     transform="translate(0,-280.06665)">
    <path
       style="fill:#71c837;fill-opacity:1;stroke:#ffffff;stroke-width:1.0583334;stroke-linecap:round;stroke-linejoin:round;stroke-miterlimit:4;stroke-dasharray:none;stroke-opacity:1;paint-order:stroke fill markers"
       d="m 1.5213542,280.59589 c -0.5496719,0 -0.9921875,0.41105 -0.9921875,0.92146 v 11.05553 c 0,0.51041 0.4425156,0.92145 0.9921875,0.92145 h 6.9453126 v 2.97656 l 2.9765632,-2.97656 h 3.96875 c 0.549672,0 0.992187,-0.41104 0.992187,-0.92145 v -11.05553 c 0,-0.51041 -0.442515,-0.92146 -0.992187,-0.92146 z m 6.9583931,1.88942 a 0.49614339,0.49614339 0 0 1 0.5178948,0.48689 v 0.002 l 0.020348,5.39066 c 0.5262537,-0.10682 0.9496316,-0.31583 1.2576749,-0.66808 0.405686,-0.46388 0.673793,-1.12187 0.829891,-1.80561 0.312197,-1.36746 0.181191,-2.77018 0.181191,-2.77018 a 0.49614339,0.49614339 0 1 1 0.986858,-0.0974 c 0,0 0.156213,1.52049 -0.201538,3.0875 -0.178876,0.78351 -0.485414,1.59436 -1.049354,2.23921 -0.472606,0.54041 -1.1824153,0.88299 -2.0250705,1.0072 v 1.71017 a 0.49621579,0.49621579 0 1 1 -0.9921875,0 v -1.65252 C 7.1664095,289.28943 6.4971587,288.88911 6.0259242,288.35027 5.4619847,287.70542 5.1554454,286.89408 4.9765698,286.11058 4.618818,284.54356 4.7755162,283.02356 4.7755162,283.02356 a 0.49614339,0.49614339 0 0 1 0.484951,-0.45395 0.49614339,0.49614339 0 0 1 0.5019072,0.55132 c 0,0 -0.131006,1.40272 0.1811905,2.77018 0.1560982,0.68374 0.4237214,1.34173 0.8294068,1.80561 0.3123376,0.35715 0.6944553,0.61356 1.2324829,0.71798 v -5.43862 -0.002 a 0.49614339,0.49614339 0 0 1 0.4742927,-0.48883 z"
       id="rect3729"
       inkscape:connector-curvature="0" />
    <g
       id="g8616">
      <g
         aria-label="Ψ"
         style="font-style:normal;font-weight:normal;font-size:10.58333397px;line-height:1.25;font-family:sans-serif;letter-spacing:0px;word-spacing:0px;fill:#a80000;fill-opacity:1;stroke:none;stroke-width:0.26458335"
         id="g8614"
         transform="matrix(1.097388,0,0,1.097388,-1.1057521,-18.257303)" />
    </g>
  </g>
</svg>
