<?xml version="1.0" encoding="UTF-8" standalone="no"?>
<!-- Created with Inkscape (http://www.inkscape.org/) -->

<svg
   xmlns:dc="http://purl.org/dc/elements/1.1/"
   xmlns:cc="http://creativecommons.org/ns#"
   xmlns:rdf="http://www.w3.org/1999/02/22-rdf-syntax-ns#"
   xmlns:svg="http://www.w3.org/2000/svg"
   xmlns="http://www.w3.org/2000/svg"
   xmlns:sodipodi="http://sodipodi.sourceforge.net/DTD/sodipodi-0.dtd"
   xmlns:inkscape="http://www.inkscape.org/namespaces/inkscape"
   width="64"
   height="64"
   viewBox="0 0 16.933333 16.933334"
   version="1.1"
   id="svg8"
   inkscape:version="0.92.4 (5da689c313, 2019-01-14)"
   sodipodi:docname="Pin-pedia-vgl.svg">
  <defs
     id="defs2" />
  <sodipodi:namedview
     id="base"
     pagecolor="#ffffff"
     bordercolor="#666666"
     borderopacity="1.0"
     inkscape:pageopacity="0.0"
     inkscape:pageshadow="2"
     inkscape:zoom="7.919596"
     inkscape:cx="22.899035"
     inkscape:cy="34.529834"
     inkscape:document-units="px"
     inkscape:current-layer="layer1"
     showgrid="false"
     units="px"
     inkscape:pagecheckerboard="true"
     objecttolerance="20"
     inkscape:window-width="1366"
     inkscape:window-height="705"
     inkscape:window-x="-8"
     inkscape:window-y="32"
     inkscape:window-maximized="1">
    <inkscape:grid
       type="xygrid"
       id="grid3725" />
  </sodipodi:namedview>
  <metadata
     id="metadata5">
    <rdf:RDF>
      <cc:Work
         rdf:about="">
        <dc:format>image/svg+xml</dc:format>
        <dc:type
           rdf:resource="http://purl.org/dc/dcmitype/StillImage" />
        <dc:title />
      </cc:Work>
    </rdf:RDF>
  </metadata>
  <g
     inkscape:label="Calque 1"
     inkscape:groupmode="layer"
     id="layer1"
     transform="translate(0,-280.06665)">
    <path
       style="fill:#71c837;fill-opacity:1;stroke:#ffffff;stroke-width:4;stroke-linecap:round;stroke-linejoin:round;stroke-miterlimit:4;stroke-dasharray:none;stroke-opacity:1;paint-order:stroke fill markers"
       d="M 5.75 2 C 3.6724999 2 2 3.553313 2 5.4824219 L 2 47.267578 C 2 49.196687 3.6724999 50.75 5.75 50.75 L 32 50.75 L 32 62 L 43.25 50.75 L 58.25 50.75 C 60.3275 50.75 62 49.196687 62 47.267578 L 62 5.4824219 C 62 3.553313 60.3275 2 58.25 2 L 5.75 2 z M 32.996094 8.0019531 C 37.954812 8.0019531 42.003906 12.041298 42.003906 17 C 42.003906 21.95874 37.954812 25.998047 32.996094 25.998047 C 28.037375 25.998047 23.998047 21.95874 23.998047 17 C 23.998047 12.041298 28.037375 8.0019531 32.996094 8.0019531 z M 32.996094 10.001953 C 29.118255 10.001953 25.998047 13.122167 25.998047 17 C 25.998047 20.877833 29.118255 23.998047 32.996094 23.998047 C 36.873932 23.998047 40.001953 20.877833 40.001953 17 C 40.001953 13.122167 36.873932 10.001953 32.996094 10.001953 z M 22.65625 20.707031 C 22.888402 21.351937 23.176531 21.969744 23.519531 22.552734 C 22.507306 23.342588 21.998047 24.203725 21.998047 25.001953 C 21.998047 26.118388 22.975251 27.350894 24.964844 28.345703 C 26.954437 29.340475 29.817495 30 32.996094 30 C 36.174692 30 39.045564 29.340475 41.035156 28.345703 C 43.024749 27.350894 44.003906 26.118388 44.003906 25.001953 C 44.003906 24.203143 43.494179 23.341106 42.480469 22.550781 C 42.822739 21.969452 43.11176 21.353821 43.34375 20.710938 C 44.933723 21.82682 45.996094 23.278793 45.996094 25.001953 C 45.996094 27.199257 44.283241 28.961878 41.929688 30.138672 C 39.576132 31.315428 36.444912 32 32.996094 32 C 29.547275 32 26.418006 31.315428 24.064453 30.138672 C 21.7109 28.961878 19.998047 27.199257 19.998047 25.001953 C 19.998047 23.276385 21.062556 21.82352 22.65625 20.707031 z M 29.007812 32.984375 C 29.493649 32.989381 29.905595 33.342835 29.984375 33.822266 C 29.984375 33.822266 30.532817 36.594825 28.427734 38.28125 C 27.601908 38.942856 26.741066 39.353198 26.191406 39.808594 C 25.641747 40.263989 25.367376 40.604176 25.378906 41.5 C 25.392561 42.560082 25.738684 43.17706 26.279297 43.677734 C 26.81991 44.178371 27.612856 44.530849 28.457031 44.740234 C 29.4948 44.986094 30.701513 44.992594 32.007812 44.996094 C 33.160838 45.050635 34.397326 45.034622 35.542969 44.740234 C 36.387144 44.531 37.18009 44.178371 37.720703 43.677734 C 38.261331 43.17706 38.607484 42.560082 38.621094 41.5 C 38.632633 40.604176 38.360207 40.265942 37.810547 39.810547 C 37.260889 39.355152 36.400045 38.942856 35.574219 38.28125 C 33.469136 36.594825 34.015625 33.822266 34.015625 33.822266 C 34.094416 33.352892 34.493071 33.004071 34.96875 32.988281 C 35.611501 32.965329 36.10851 33.546285 35.986328 34.177734 C 35.986328 34.177734 35.719634 35.835033 36.820312 36.716797 C 37.391377 37.174271 38.25986 37.588019 39.080078 38.267578 C 39.900292 38.947099 40.641947 40.05358 40.623047 41.529297 C 40.603159 43.073309 39.974726 44.317974 39.080078 45.146484 C 38.185426 45.974995 37.076174 46.420853 36.023438 46.681641 C 34.062951 47.167298 32.249745 47.02297 32 47 C 31.750255 47.023001 29.937049 47.16755 27.976562 46.681641 C 26.923826 46.420702 25.816525 45.974995 24.921875 45.146484 C 24.027225 44.317974 23.398786 43.073309 23.378906 41.529297 C 23.359897 40.05358 24.093846 38.947099 24.914062 38.267578 C 25.734282 37.588019 26.608623 37.174271 27.179688 36.716797 C 28.280366 35.835033 28.013672 34.177734 28.013672 34.177734 C 27.898941 33.596952 28.311029 33.044171 28.900391 32.988281 C 28.936102 32.98506 28.971962 32.98375 29.007812 32.984375 z "
       transform="matrix(0.26458334,0,0,0.26458334,0,280.06665)"
       id="rect3729" />
  </g>
</svg>
