<?xml version="1.0" encoding="UTF-8" standalone="no"?>
<!-- Created with Inkscape (http://www.inkscape.org/) -->

<svg
   xmlns:dc="http://purl.org/dc/elements/1.1/"
   xmlns:cc="http://creativecommons.org/ns#"
   xmlns:rdf="http://www.w3.org/1999/02/22-rdf-syntax-ns#"
   xmlns:svg="http://www.w3.org/2000/svg"
   xmlns="http://www.w3.org/2000/svg"
   xmlns:sodipodi="http://sodipodi.sourceforge.net/DTD/sodipodi-0.dtd"
   xmlns:inkscape="http://www.inkscape.org/namespaces/inkscape"
   width="64"
   height="64"
   viewBox="0 0 16.933333 16.933334"
   version="1.1"
   id="svg8"
   inkscape:version="0.92.4 (5da689c313, 2019-01-14)"
   sodipodi:docname="Pin-medic-vgr.svg">
  <defs
     id="defs2" />
  <sodipodi:namedview
     id="base"
     pagecolor="#ffffff"
     bordercolor="#666666"
     borderopacity="1.0"
     inkscape:pageopacity="0.0"
     inkscape:pageshadow="2"
     inkscape:zoom="4.8945048"
     inkscape:cx="26.599227"
     inkscape:cy="2.0867315"
     inkscape:document-units="px"
     inkscape:current-layer="layer1"
     showgrid="false"
     units="px"
     inkscape:pagecheckerboard="true"
     objecttolerance="20"
     inkscape:window-width="1366"
     inkscape:window-height="705"
     inkscape:window-x="-8"
     inkscape:window-y="32"
     inkscape:window-maximized="1">
    <inkscape:grid
       type="xygrid"
       id="grid3725" />
  </sodipodi:namedview>
  <metadata
     id="metadata5">
    <rdf:RDF>
      <cc:Work
         rdf:about="">
        <dc:format>image/svg+xml</dc:format>
        <dc:type
           rdf:resource="http://purl.org/dc/dcmitype/StillImage" />
        <dc:title />
      </cc:Work>
    </rdf:RDF>
  </metadata>
  <g
     inkscape:label="Calque 1"
     inkscape:groupmode="layer"
     id="layer1"
     transform="translate(0,-280.06665)">
    <path
       style="fill:#ffdd55;fill-opacity:1;stroke:#ffffff;stroke-width:1.0583334;stroke-linecap:round;stroke-linejoin:round;stroke-miterlimit:4;stroke-dasharray:none;stroke-opacity:1;paint-order:stroke fill markers"
       d="m 1.5213542,280.59588 c -0.54967189,0 -0.9921875,0.41105 -0.9921875,0.92146 v 11.05553 c 0,0.51041 0.44251561,0.92146 0.9921875,0.92146 H 8.466667 v 2.97656 l 2.976563,-2.97656 h 3.96875 c 0.549672,0 0.992187,-0.41105 0.992187,-0.92146 v -11.05553 c 0,-0.51041 -0.442515,-0.92146 -0.992187,-0.92146 z m 3.7967647,1.22232 c 0.066331,-0.004 0.131566,-0.003 0.1933022,0.003 0.061735,0.006 0.1203791,0.015 0.1758612,0.0387 0.055482,0.0237 0.1120731,0.0653 0.1429177,0.12984 0.025512,0.0533 0.051154,0.13344 0.091564,0.26742 0.04041,0.13398 0.089257,0.31061 0.1409799,0.5179 0.103448,0.41459 0.2173358,0.94994 0.2838975,1.49458 0.066559,0.54463 0.086993,1.0978 0.00145,1.55998 -0.019807,0.10701 -0.046634,0.20955 -0.079937,0.30666 a 0.74414063,0.74414064 0 0 1 0.1608428,0.46218 0.74414063,0.74414064 0 0 1 -0.2427176,0.54842 c 1.1773873,1.87782 2.1423584,2.75981 2.8501167,3.00903 0.3884851,0.13684 0.6956329,0.10599 0.9829837,-0.0329 0.287347,-0.13894 0.555011,-0.40001 0.791133,-0.74511 0.637751,-0.93209 1.001357,-2.40874 1.173378,-3.27984 a 0.99218759,0.99218759 0 0 1 -0.686974,-0.94374 0.99218759,0.99218759 0 0 1 0.992187,-0.99218 0.99218759,0.99218759 0 0 1 0.992189,0.99218 0.99218759,0.99218759 0 0 1 -0.788713,0.9699 c -0.162979,0.88492 -0.534331,2.45597 -1.271724,3.5337 -0.267723,0.39128 -0.589312,0.72072 -0.985406,0.91225 -0.3960936,0.19154 -0.8677595,0.2294 -1.3637724,0.0548 -0.914496,-0.322 -1.9296336,-1.31174 -3.1504859,-3.28371 a 0.74414063,0.74414064 0 0 1 -0.036336,0.002 0.74414063,0.74414064 0 0 1 -0.6777687,-0.4394 c -0.1728825,-0.0358 -0.3485304,-0.10644 -0.5208015,-0.20397 -0.4090288,-0.23155 -0.8197783,-0.60612 -1.19421,-1.0072 -0.3744319,-0.40107 -0.7100845,-0.83007 -0.9611818,-1.1758 -0.1255487,-0.17288 -0.2309787,-0.32379 -0.3076362,-0.44086 -0.076658,-0.11708 -0.1198957,-0.18988 -0.1443711,-0.2437 -0.02957,-0.0651 -0.02522,-0.13457 -0.00775,-0.19232 0.017469,-0.0577 0.047004,-0.10849 0.082359,-0.1594 0.07071,-0.10187 0.1667071,-0.2005 0.2659721,-0.29116 0.082891,-0.0756 0.1618155,-0.13848 0.232544,-0.19428 a 0.24804691,0.24804692 0 0 1 -0.00921,-0.0683 0.24804691,0.24804692 0 0 1 0.2480469,-0.24804 0.24804691,0.24804692 0 0 1 0.2480469,0.24804 0.24804691,0.24804692 0 0 1 -0.2480469,0.24804 0.24804691,0.24804692 0 0 1 -0.058136,-0.007 c -0.070944,0.0554 -0.1586903,0.126 -0.24514,0.20493 -0.091753,0.0838 -0.1788149,0.1744 -0.2306062,0.24902 -0.025896,0.0372 -0.043266,0.0712 -0.049416,0.0916 -0.00615,0.0203 -0.00199,0.0203 -0.00387,0.0165 0.00321,0.007 0.05425,0.0956 0.1283836,0.2088 0.074133,0.11323 0.1751719,0.26243 0.2984314,0.43215 0.2465191,0.33943 0.5780462,0.76282 0.9427721,1.1535 0.3647256,0.39068 0.764627,0.74973 1.1355896,0.95973 0.116272,0.0658 0.227108,0.11457 0.3333131,0.14874 a 0.74414063,0.74414064 0 0 1 -0.00145,-0.0335 0.74414063,0.74414064 0 0 1 0.7441407,-0.74414 0.74414063,0.74414064 0 0 1 0.3754616,0.10222 c 0.015393,-0.0561 0.033041,-0.10872 0.044571,-0.17102 0.077577,-0.41915 0.059023,-0.9563 -0.00581,-1.48682 -0.064836,-0.53052 -0.1745837,-1.05606 -0.2761458,-1.46309 -0.050782,-0.20351 -0.1004475,-0.37767 -0.1395264,-0.50724 -0.039079,-0.12956 -0.073199,-0.22597 -0.076546,-0.23254 0.002,0.004 0.00307,9.4e-4 -0.016472,-0.007 -0.019537,-0.008 -0.055538,-0.0186 -0.1007691,-0.0223 -0.090462,-0.008 -0.2174191,7e-5 -0.34058,0.0165 -0.1192237,0.0158 -0.2340397,0.0394 -0.3226546,0.0591 a 0.24804691,0.24804692 0 0 1 -0.2441713,0.20397 0.24804691,0.24804692 0 0 1 -0.2480468,-0.24806 0.24804691,0.24804692 0 0 1 0.2480468,-0.24804 0.24804691,0.24804692 0 0 1 0.157936,0.0572 c 0.097379,-0.0224 0.2269679,-0.0492 0.3773996,-0.0693 0.066617,-0.008 0.134238,-0.0156 0.2005692,-0.0189 z"
       id="rect3729"
       inkscape:connector-curvature="0" />
  </g>
</svg>
