<?xml version="1.0" encoding="UTF-8" standalone="no"?>
<!-- Created with Inkscape (http://www.inkscape.org/) -->

<svg
   xmlns:dc="http://purl.org/dc/elements/1.1/"
   xmlns:cc="http://creativecommons.org/ns#"
   xmlns:rdf="http://www.w3.org/1999/02/22-rdf-syntax-ns#"
   xmlns:svg="http://www.w3.org/2000/svg"
   xmlns="http://www.w3.org/2000/svg"
   xmlns:sodipodi="http://sodipodi.sourceforge.net/DTD/sodipodi-0.dtd"
   xmlns:inkscape="http://www.inkscape.org/namespaces/inkscape"
   width="64"
   height="64"
   viewBox="0 0 16.933333 16.933334"
   version="1.1"
   id="svg8"
   inkscape:version="0.92.4 (5da689c313, 2019-01-14)"
   sodipodi:docname="Pin-gynec-vgl.svg">
  <defs
     id="defs2" />
  <sodipodi:namedview
     id="base"
     pagecolor="#ffffff"
     bordercolor="#666666"
     borderopacity="1.0"
     inkscape:pageopacity="0.0"
     inkscape:pageshadow="2"
     inkscape:zoom="2.8"
     inkscape:cx="4.4026848"
     inkscape:cy="-15.490619"
     inkscape:document-units="px"
     inkscape:current-layer="layer1"
     showgrid="false"
     units="px"
     inkscape:pagecheckerboard="true"
     objecttolerance="20"
     inkscape:window-width="1366"
     inkscape:window-height="705"
     inkscape:window-x="-8"
     inkscape:window-y="32"
     inkscape:window-maximized="1">
    <inkscape:grid
       type="xygrid"
       id="grid3725" />
  </sodipodi:namedview>
  <metadata
     id="metadata5">
    <rdf:RDF>
      <cc:Work
         rdf:about="">
        <dc:format>image/svg+xml</dc:format>
        <dc:type
           rdf:resource="http://purl.org/dc/dcmitype/StillImage" />
        <dc:title />
      </cc:Work>
    </rdf:RDF>
  </metadata>
  <g
     inkscape:label="Calque 1"
     inkscape:groupmode="layer"
     id="layer1"
     transform="translate(0,-280.06665)">
    <path
       inkscape:connector-curvature="0"
       id="path1364"
       d="m 1.0725075,281.70613 c -0.54967196,0 -0.99218756,0.41105 -0.99218756,0.92146 v 11.05553 c 0,0.51041 0.4425156,0.92145 0.99218756,0.92145 h 6.9453126 v 2.97656 l 2.9765629,-2.97656 h 3.96875 c 0.549672,0 0.992187,-0.41104 0.992187,-0.92145 v -11.05553 c 0,-0.51041 -0.442515,-0.92146 -0.992187,-0.92146 z m 7.4472201,1.23927 v 4.8e-4 a 0.2417646,0.2417646 0 0 1 0.2417487,0.24175 v 2.31769 1.15933 a 0.2417646,0.2417646 0 1 1 -0.4834977,0 v -1.15933 -1.97565 c -1.0202652,0.13522 -1.8400041,0.92071 -1.8400041,1.97565 a 0.2417646,0.2417646 0 0 1 0,0.015 c -0.07613,1.26721 -0.3754013,1.91432 -0.6409491,2.47901 -0.2653338,0.56424 -0.4958728,1.04183 -0.520317,2.14619 0.00192,1.70192 1.3277341,3.05271 3.0012702,3.18198 v -0.28923 a 0.2417646,0.2417646 0 1 1 0.4834977,0 v 0.58039 a 0.2417646,0.2417646 0 0 1 -0.2417487,0.24175 c -2.0551984,0 -3.7265169,-1.66758 -3.7265169,-3.71876 a 0.2417646,0.2417646 0 0 1 0,-0.005 c 0.025618,-1.17447 0.3000849,-1.77868 0.5658569,-2.34385 0.2646249,-0.56273 0.5217746,-1.09387 0.5954095,-2.28717 0,-1.41112 1.1516819,-2.55992 2.5652505,-2.55992 z m 0.093502,4.86356 c 1.2299947,0 2.2319374,1.00195 2.2319374,2.23194 0,1.23 -1.0019427,2.23193 -2.2319374,2.23193 -1.2299948,0 -2.2324219,-1.00193 -2.2324219,-2.23193 0,-1.22999 1.0024271,-2.23194 2.2324219,-2.23194 z m 0,0.49609 c -0.9618856,0 -1.7358437,0.77396 -1.7358437,1.73585 0,0.96188 0.7739581,1.73584 1.7358437,1.73584 0.9618857,0 1.7358434,-0.77396 1.7358434,-1.73584 0,-0.96189 -0.7739577,-1.73585 -1.7358434,-1.73585 z"
       style="fill:none;fill-opacity:1;stroke:none;stroke-width:1.0583334;stroke-linecap:round;stroke-linejoin:round;stroke-miterlimit:4;stroke-dasharray:none;stroke-opacity:1;paint-order:stroke fill markers" />
    <path
       inkscape:connector-curvature="0"
       id="path1386"
       d="m 1.0252604,283.17078 c -0.54967189,0 -0.99218749,0.41105 -0.99218749,0.92146 v 11.05553 c 0,0.51041 0.4425156,0.92145 0.99218749,0.92145 H 7.970573 v 2.97656 l 2.976563,-2.97656 h 3.96875 c 0.549672,0 0.992187,-0.41104 0.992187,-0.92145 v -11.05553 c 0,-0.51041 -0.442515,-0.92146 -0.992187,-0.92146 z m 7.4472201,1.23927 v 4.8e-4 a 0.2417646,0.2417646 0 0 1 0.2417487,0.24175 v 2.31769 1.15933 a 0.2417646,0.2417646 0 1 1 -0.4834977,0 v -1.15933 -1.97565 c -1.0202652,0.13522 -1.8400041,0.92071 -1.8400041,1.97565 a 0.2417646,0.2417646 0 0 1 0,0.015 c -0.07613,1.26721 -0.3754013,1.91432 -0.6409491,2.47901 -0.2653338,0.56424 -0.4958728,1.04183 -0.520317,2.14619 0.00192,1.70192 1.3277341,3.05271 3.0012702,3.18198 v -0.28923 a 0.2417646,0.2417646 0 1 1 0.4834977,0 v 0.58039 a 0.2417646,0.2417646 0 0 1 -0.2417487,0.24175 c -2.0551984,0 -3.7265169,-1.66758 -3.7265169,-3.71876 a 0.2417646,0.2417646 0 0 1 0,-0.005 c 0.025618,-1.17447 0.3000849,-1.77868 0.5658569,-2.34385 0.2646249,-0.56273 0.5217746,-1.09387 0.5954095,-2.28717 0,-1.41112 1.1516819,-2.55992 2.5652505,-2.55992 z m 0.093502,4.86356 c 1.2299947,0 2.2319375,1.00195 2.2319375,2.23194 0,1.23 -1.0019428,2.23193 -2.2319375,2.23193 -1.2299948,0 -2.2324219,-1.00193 -2.2324219,-2.23193 0,-1.22999 1.0024271,-2.23194 2.2324219,-2.23194 z m 0,0.49609 c -0.9618856,0 -1.7358437,0.77396 -1.7358437,1.73585 0,0.96188 0.7739581,1.73584 1.7358437,1.73584 0.9618857,0 1.7358435,-0.77396 1.7358435,-1.73584 0,-0.96189 -0.7739578,-1.73585 -1.7358435,-1.73585 z"
       style="fill:none;fill-opacity:1;stroke:none;stroke-width:1.0583334;stroke-linecap:round;stroke-linejoin:round;stroke-miterlimit:4;stroke-dasharray:none;stroke-opacity:1;paint-order:stroke fill markers" />
    <path
       inkscape:connector-curvature="0"
       id="path1392"
       d="m 1.0016369,283.31252 c -0.5496719,0 -0.9921875,0.41105 -0.9921875,0.92146 v 11.05553 c 0,0.51041 0.4425156,0.92145 0.9921875,0.92145 h 6.9453126 v 2.97656 l 2.9765635,-2.97656 h 3.96875 c 0.549672,0 0.992187,-0.41104 0.992187,-0.92145 v -11.05553 c 0,-0.51041 -0.442515,-0.92146 -0.992187,-0.92146 z m 7.4472201,1.23927 v 4.8e-4 a 0.2417646,0.2417646 0 0 1 0.2417487,0.24175 v 2.31769 1.15933 a 0.2417646,0.2417646 0 1 1 -0.4834977,0 v -1.15933 -1.97565 c -1.0202652,0.13522 -1.8400041,0.92071 -1.8400041,1.97565 a 0.2417646,0.2417646 0 0 1 0,0.015 c -0.07613,1.26721 -0.3754013,1.91432 -0.6409491,2.47901 -0.2653338,0.56424 -0.4958728,1.04183 -0.520317,2.14619 0.00192,1.70192 1.3277341,3.05271 3.0012702,3.18198 v -0.28923 a 0.2417646,0.2417646 0 1 1 0.4834977,0 v 0.58039 A 0.2417646,0.2417646 0 0 1 8.448857,295.4668 c -2.0551984,0 -3.7265169,-1.66758 -3.7265169,-3.71876 a 0.2417646,0.2417646 0 0 1 0,-0.005 c 0.025618,-1.17447 0.3000849,-1.77868 0.5658569,-2.34385 0.2646249,-0.56273 0.5217746,-1.09387 0.5954095,-2.28717 0,-1.41112 1.1516819,-2.55992 2.5652505,-2.55992 z m 0.093502,4.86356 c 1.2299947,0 2.231938,1.00195 2.231938,2.23194 0,1.23 -1.0019433,2.23193 -2.231938,2.23193 -1.2299948,0 -2.2324219,-1.00193 -2.2324219,-2.23193 0,-1.22999 1.0024271,-2.23194 2.2324219,-2.23194 z m 0,0.49609 c -0.9618856,0 -1.7358437,0.77396 -1.7358437,1.73585 0,0.96188 0.7739581,1.73584 1.7358437,1.73584 0.9618857,0 1.735844,-0.77396 1.735844,-1.73584 0,-0.96189 -0.7739583,-1.73585 -1.735844,-1.73585 z"
       style="fill:none;fill-opacity:1;stroke:none;stroke-width:1.0583334;stroke-linecap:round;stroke-linejoin:round;stroke-miterlimit:4;stroke-dasharray:none;stroke-opacity:1;paint-order:stroke fill markers" />
    <path
       inkscape:connector-curvature="0"
       id="path1394"
       d="m 1.0016369,283.31252 c -0.5496719,0 -0.9921875,0.41105 -0.9921875,0.92146 v 11.05553 c 0,0.51041 0.4425156,0.92145 0.9921875,0.92145 h 6.9453126 v 2.97656 l 2.9765635,-2.97656 h 3.96875 c 0.549672,0 0.992187,-0.41104 0.992187,-0.92145 v -11.05553 c 0,-0.51041 -0.442515,-0.92146 -0.992187,-0.92146 z m 7.4472201,1.23927 v 4.8e-4 a 0.2417646,0.2417646 0 0 1 0.2417487,0.24175 v 2.31769 1.15933 a 0.2417646,0.2417646 0 1 1 -0.4834977,0 v -1.15933 -1.97565 c -1.0202652,0.13522 -1.8400041,0.92071 -1.8400041,1.97565 a 0.2417646,0.2417646 0 0 1 0,0.015 c -0.07613,1.26721 -0.3754013,1.91432 -0.6409491,2.47901 -0.2653338,0.56424 -0.4958728,1.04183 -0.520317,2.14619 0.00192,1.70192 1.3277341,3.05271 3.0012702,3.18198 v -0.28923 a 0.2417646,0.2417646 0 1 1 0.4834977,0 v 0.58039 A 0.2417646,0.2417646 0 0 1 8.448857,295.4668 c -2.0551984,0 -3.7265169,-1.66758 -3.7265169,-3.71876 a 0.2417646,0.2417646 0 0 1 0,-0.005 c 0.025618,-1.17447 0.3000849,-1.77868 0.5658569,-2.34385 0.2646249,-0.56273 0.5217746,-1.09387 0.5954095,-2.28717 0,-1.41112 1.1516819,-2.55992 2.5652505,-2.55992 z m 0.093502,4.86356 c 1.2299947,0 2.231938,1.00195 2.231938,2.23194 0,1.23 -1.0019433,2.23193 -2.231938,2.23193 -1.2299948,0 -2.2324219,-1.00193 -2.2324219,-2.23193 0,-1.22999 1.0024271,-2.23194 2.2324219,-2.23194 z m 0,0.49609 c -0.9618856,0 -1.7358437,0.77396 -1.7358437,1.73585 0,0.96188 0.7739581,1.73584 1.7358437,1.73584 0.9618857,0 1.735844,-0.77396 1.735844,-1.73584 0,-0.96189 -0.7739583,-1.73585 -1.735844,-1.73585 z"
       style="fill:none;fill-opacity:1;stroke:none;stroke-width:1.0583334;stroke-linecap:round;stroke-linejoin:round;stroke-miterlimit:4;stroke-dasharray:none;stroke-opacity:1;paint-order:stroke fill markers" />
    <path
       inkscape:connector-curvature="0"
       id="path1396"
       d="m 1.0016369,283.31252 c -0.5496719,0 -0.9921875,0.41105 -0.9921875,0.92146 v 11.05553 c 0,0.51041 0.4425156,0.92145 0.9921875,0.92145 h 6.9453126 v 2.97656 l 2.9765635,-2.97656 h 3.96875 c 0.549672,0 0.992187,-0.41104 0.992187,-0.92145 v -11.05553 c 0,-0.51041 -0.442515,-0.92146 -0.992187,-0.92146 z m 7.4472201,1.23927 v 4.8e-4 a 0.2417646,0.2417646 0 0 1 0.2417487,0.24175 v 2.31769 1.15933 a 0.2417646,0.2417646 0 1 1 -0.4834977,0 v -1.15933 -1.97565 c -1.0202652,0.13522 -1.8400041,0.92071 -1.8400041,1.97565 a 0.2417646,0.2417646 0 0 1 0,0.015 c -0.07613,1.26721 -0.3754013,1.91432 -0.6409491,2.47901 -0.2653338,0.56424 -0.4958728,1.04183 -0.520317,2.14619 0.00192,1.70192 1.3277341,3.05271 3.0012702,3.18198 v -0.28923 a 0.2417646,0.2417646 0 1 1 0.4834977,0 v 0.58039 A 0.2417646,0.2417646 0 0 1 8.448857,295.4668 c -2.0551984,0 -3.7265169,-1.66758 -3.7265169,-3.71876 a 0.2417646,0.2417646 0 0 1 0,-0.005 c 0.025618,-1.17447 0.3000849,-1.77868 0.5658569,-2.34385 0.2646249,-0.56273 0.5217746,-1.09387 0.5954095,-2.28717 0,-1.41112 1.1516819,-2.55992 2.5652505,-2.55992 z m 0.093502,4.86356 c 1.2299947,0 2.231938,1.00195 2.231938,2.23194 0,1.23 -1.0019433,2.23193 -2.231938,2.23193 -1.2299948,0 -2.2324219,-1.00193 -2.2324219,-2.23193 0,-1.22999 1.0024271,-2.23194 2.2324219,-2.23194 z m 0,0.49609 c -0.9618856,0 -1.7358437,0.77396 -1.7358437,1.73585 0,0.96188 0.7739581,1.73584 1.7358437,1.73584 0.9618857,0 1.735844,-0.77396 1.735844,-1.73584 0,-0.96189 -0.7739583,-1.73585 -1.735844,-1.73585 z"
       style="fill:none;fill-opacity:1;stroke:none;stroke-width:1.0583334;stroke-linecap:round;stroke-linejoin:round;stroke-miterlimit:4;stroke-dasharray:none;stroke-opacity:1;paint-order:stroke fill markers" />
    <path
       inkscape:connector-curvature="0"
       id="path1398"
       d="m 1.0016369,283.31252 c -0.5496719,0 -0.9921875,0.41105 -0.9921875,0.92146 v 11.05553 c 0,0.51041 0.4425156,0.92145 0.9921875,0.92145 h 6.9453126 v 2.97656 l 2.9765635,-2.97656 h 3.96875 c 0.549672,0 0.992187,-0.41104 0.992187,-0.92145 v -11.05553 c 0,-0.51041 -0.442515,-0.92146 -0.992187,-0.92146 z m 7.4472201,1.23927 v 4.8e-4 a 0.2417646,0.2417646 0 0 1 0.2417487,0.24175 v 2.31769 1.15933 a 0.2417646,0.2417646 0 1 1 -0.4834977,0 v -1.15933 -1.97565 c -1.0202652,0.13522 -1.8400041,0.92071 -1.8400041,1.97565 a 0.2417646,0.2417646 0 0 1 0,0.015 c -0.07613,1.26721 -0.3754013,1.91432 -0.6409491,2.47901 -0.2653338,0.56424 -0.4958728,1.04183 -0.520317,2.14619 0.00192,1.70192 1.3277341,3.05271 3.0012702,3.18198 v -0.28923 a 0.2417646,0.2417646 0 1 1 0.4834977,0 v 0.58039 A 0.2417646,0.2417646 0 0 1 8.448857,295.4668 c -2.0551984,0 -3.7265169,-1.66758 -3.7265169,-3.71876 a 0.2417646,0.2417646 0 0 1 0,-0.005 c 0.025618,-1.17447 0.3000849,-1.77868 0.5658569,-2.34385 0.2646249,-0.56273 0.5217746,-1.09387 0.5954095,-2.28717 0,-1.41112 1.1516819,-2.55992 2.5652505,-2.55992 z m 0.093502,4.86356 c 1.2299947,0 2.231938,1.00195 2.231938,2.23194 0,1.23 -1.0019433,2.23193 -2.231938,2.23193 -1.2299948,0 -2.2324219,-1.00193 -2.2324219,-2.23193 0,-1.22999 1.0024271,-2.23194 2.2324219,-2.23194 z m 0,0.49609 c -0.9618856,0 -1.7358437,0.77396 -1.7358437,1.73585 0,0.96188 0.7739581,1.73584 1.7358437,1.73584 0.9618857,0 1.735844,-0.77396 1.735844,-1.73584 0,-0.96189 -0.7739583,-1.73585 -1.735844,-1.73585 z"
       style="fill:none;fill-opacity:1;stroke:none;stroke-width:1.0583334;stroke-linecap:round;stroke-linejoin:round;stroke-miterlimit:4;stroke-dasharray:none;stroke-opacity:1;paint-order:stroke fill markers" />
    <path
       style="fill:#71c837;fill-opacity:1;stroke:#ffffff;stroke-width:4;stroke-linecap:round;stroke-linejoin:round;stroke-miterlimit:4;stroke-dasharray:none;stroke-opacity:1;paint-order:stroke fill markers"
       d="M 5.75 2 C 3.6724995 2 2 3.5533132 2 5.4824219 L 2 47.267578 C 2 49.196687 3.6724995 50.75 5.75 50.75 L 32 50.75 L 32 62 L 43.25 50.75 L 58.25 50.75 C 60.3275 50.75 62 49.196687 62 47.267578 L 62 5.4824219 C 62 3.5533132 60.3275 2 58.25 2 L 5.75 2 z M 32.996094 6 C 40.163948 6 45.996094 11.832126 45.996094 19 C 45.996094 25.290872 41.503409 30.548839 35.558594 31.742188 C 35.596045 32.063561 35.637985 32.376386 35.669922 32.708984 C 35.796003 34.022106 35.87165 35.421453 35.871094 36.853516 C 39.095745 35.835273 42.200276 34.335808 43.767578 32.316406 A 1.0001001 1.0001001 0 0 1 44.505859 31.917969 A 1.0001001 1.0001001 0 0 1 45.347656 33.542969 C 43.193915 36.317973 39.449762 37.934736 35.800781 38.976562 C 35.598302 42.199706 34.90412 45.47225 33.269531 48.253906 A 1.0001001 1.0001001 0 1 1 31.550781 47.244141 C 32.853456 45.027297 33.488158 42.299386 33.734375 39.517578 C 33.651838 39.536854 33.566436 39.56118 33.484375 39.580078 C 29.197819 40.572053 25.503906 40.798828 25.503906 40.798828 A 1.0001001 1.0001001 0 1 1 25.386719 38.804688 C 25.386719 38.804688 28.926902 38.58291 33.033203 37.632812 C 33.302097 37.57045 33.577347 37.494947 33.849609 37.425781 C 33.882276 35.874474 33.821671 34.338463 33.683594 32.900391 C 33.652866 32.580378 33.614182 32.279868 33.578125 31.970703 C 33.383908 31.982042 33.192406 32 32.996094 32 C 25.828236 32 19.998047 26.167874 19.998047 19 C 19.998047 11.832126 25.828236 6 32.996094 6 z M 32.996094 8.0019531 C 26.909117 8.0019531 21.998047 12.913033 21.998047 19 C 21.998047 25.086967 26.909117 30 32.996094 30 C 33.101584 30 33.203821 29.987285 33.308594 29.984375 C 32.809571 26.826202 32.162109 24.640625 32.162109 24.640625 A 1.0001001 1.0001001 0 0 1 33.115234 23.339844 A 1.0001001 1.0001001 0 0 1 34.082031 24.072266 C 34.082031 24.072266 34.768344 26.405951 35.291016 29.755859 C 40.272592 28.703639 44.003906 24.299351 44.003906 19 C 44.003906 12.913033 39.08307 8.0019531 32.996094 8.0019531 z "
       transform="matrix(0.26458334,0,0,0.26458334,0,280.06665)"
       id="rect3729" />
  </g>
</svg>
