<?xml version="1.0" encoding="UTF-8" standalone="no"?>
<!-- Created with Inkscape (http://www.inkscape.org/) -->

<svg
   xmlns:dc="http://purl.org/dc/elements/1.1/"
   xmlns:cc="http://creativecommons.org/ns#"
   xmlns:rdf="http://www.w3.org/1999/02/22-rdf-syntax-ns#"
   xmlns:svg="http://www.w3.org/2000/svg"
   xmlns="http://www.w3.org/2000/svg"
   xmlns:sodipodi="http://sodipodi.sourceforge.net/DTD/sodipodi-0.dtd"
   xmlns:inkscape="http://www.inkscape.org/namespaces/inkscape"
   width="64"
   height="64"
   viewBox="0 0 16.933333 16.933334"
   version="1.1"
   id="svg8"
   inkscape:version="0.92.4 (5da689c313, 2019-01-14)"
   sodipodi:docname="Pin-medic-vgl.svg">
  <defs
     id="defs2" />
  <sodipodi:namedview
     id="base"
     pagecolor="#ffffff"
     bordercolor="#666666"
     borderopacity="1.0"
     inkscape:pageopacity="0.0"
     inkscape:pageshadow="2"
     inkscape:zoom="4"
     inkscape:cx="56.908838"
     inkscape:cy="-3.0416121"
     inkscape:document-units="px"
     inkscape:current-layer="layer1"
     showgrid="false"
     units="px"
     inkscape:pagecheckerboard="true"
     objecttolerance="20"
     inkscape:window-width="1366"
     inkscape:window-height="705"
     inkscape:window-x="-8"
     inkscape:window-y="32"
     inkscape:window-maximized="1">
    <inkscape:grid
       type="xygrid"
       id="grid3725" />
  </sodipodi:namedview>
  <metadata
     id="metadata5">
    <rdf:RDF>
      <cc:Work
         rdf:about="">
        <dc:format>image/svg+xml</dc:format>
        <dc:type
           rdf:resource="http://purl.org/dc/dcmitype/StillImage" />
        <dc:title />
      </cc:Work>
    </rdf:RDF>
  </metadata>
  <g
     inkscape:label="Calque 1"
     inkscape:groupmode="layer"
     id="layer1"
     transform="translate(0,-280.06665)">
    <path
       style="fill:#71c837;stroke:#ffffff;stroke-width:0.99615626;stroke-linecap:round;stroke-linejoin:round;stroke-miterlimit:4;stroke-dasharray:none;stroke-opacity:1;paint-order:stroke fill markers"
       d="m 1.4941177,280.56476 c -0.55182745,0 -0.99607845,0.41266 -0.99607845,0.92507 v 11.09888 c 0,0.51241 0.444251,0.92507 0.99607845,0.92507 h 6.9725491 v 2.98823 l 2.9882352,-2.98823 h 3.984314 c 0.551827,0 0.996079,-0.41266 0.996079,-0.92507 v -11.09888 c 0,-0.51241 -0.444252,-0.92507 -0.996079,-0.92507 z m 3.8116537,1.22711 c 0.066591,-0.004 0.132082,-0.003 0.1940603,0.003 0.061977,0.006 0.1208511,0.0151 0.1765508,0.0389 0.0557,0.0238 0.1125126,0.0656 0.1434782,0.13035 0.025612,0.0535 0.051354,0.13397 0.091923,0.26848 0.040569,0.1345 0.089607,0.31182 0.1415328,0.51992 0.1038537,0.41622 0.2181881,0.95367 0.2850108,1.50044 0.06682,0.54677 0.087334,1.10211 0.00146,1.5661 -0.019884,0.10744 -0.046817,0.21037 -0.08025,0.30787 a 0.74705879,0.74705879 0 0 1 0.1614735,0.46399 0.74705879,0.74705879 0 0 1 -0.2436693,0.55057 c 1.1820044,1.88519 2.1507596,2.77063 2.8612941,3.02082 0.3900087,0.13737 0.6983607,0.10641 0.9868374,-0.033 0.288475,-0.13949 0.557188,-0.40157 0.794237,-0.74803 0.640252,-0.93574 1.005283,-2.41818 1.177979,-3.29269 a 0.99607846,0.99607846 0 0 1 -0.689668,-0.94745 0.99607846,0.99607846 0 0 1 0.996079,-0.99607 0.99607846,0.99607846 0 0 1 0.996079,0.99607 0.99607846,0.99607846 0 0 1 -0.791805,0.97371 c -0.163619,0.88839 -0.536426,2.4656 -1.276712,3.54755 -0.268773,0.39282 -0.591622,0.72355 -0.98927,0.91584 -0.3976479,0.19229 -0.8711635,0.23029 -1.3691211,0.055 -0.9180829,-0.32327 -1.9372013,-1.31688 -3.1628412,-3.29659 a 0.74705879,0.74705879 0 0 1 -0.036478,0.002 0.74705879,0.74705879 0 0 1 -0.6804267,-0.44113 c -0.1735604,-0.036 -0.3498972,-0.10685 -0.5228438,-0.20476 -0.4106328,-0.23246 -0.8229931,-0.6085 -1.1988931,-1.01116 -0.3759003,-0.40264 -0.7128691,-0.83332 -0.9649511,-1.18041 -0.126041,-0.17355 -0.2318846,-0.32506 -0.3088427,-0.4426 -0.076958,-0.11753 -0.1203658,-0.19061 -0.1449371,-0.24464 -0.029686,-0.0653 -0.025319,-0.1351 -0.00778,-0.19308 0.017538,-0.058 0.047189,-0.10891 0.082682,-0.16002 0.070987,-0.10227 0.1673609,-0.20129 0.2670152,-0.2923 0.083216,-0.076 0.16245,-0.13902 0.2334559,-0.19504 a 0.24901964,0.24901964 0 0 1 -0.00924,-0.0686 0.24901964,0.24901964 0 0 1 0.2490196,-0.24902 0.24901964,0.24901964 0 0 1 0.2490195,0.24902 0.24901964,0.24901964 0 0 1 -0.2490195,0.24902 0.24901964,0.24901964 0 0 1 -0.058364,-0.008 c -0.071222,0.0556 -0.1593127,0.12649 -0.2461014,0.20573 -0.092113,0.0841 -0.1795161,0.17508 -0.2315104,0.24999 -0.025997,0.0374 -0.043435,0.0715 -0.049609,0.092 -0.00617,0.0203 -0.002,0.0203 -0.00389,0.0166 0.00322,0.008 0.054464,0.0959 0.1288872,0.20962 0.074423,0.11367 0.1758588,0.26346 0.2996017,0.43384 0.2474858,0.34077 0.5803129,0.76582 0.9464691,1.15804 0.3661559,0.3922 0.7676256,0.75267 1.1400429,0.96349 0.1167279,0.0661 0.2279986,0.11501 0.3346201,0.14932 a 0.74705879,0.74705879 0 0 1 -0.00146,-0.0336 0.74705879,0.74705879 0 0 1 0.7470588,-0.74706 0.74705879,0.74705879 0 0 1 0.376934,0.10262 c 0.015453,-0.0563 0.033171,-0.10914 0.044745,-0.17169 0.077881,-0.4208 0.059255,-0.96005 -0.00584,-1.49265 -0.06509,-0.5326 -0.1752685,-1.06021 -0.2772288,-1.46883 -0.050981,-0.20431 -0.1008415,-0.37915 -0.1400736,-0.50923 -0.039232,-0.13007 -0.073486,-0.22686 -0.076846,-0.23345 0.002,0.004 0.00308,9.5e-4 -0.016536,-0.008 -0.019613,-0.008 -0.055756,-0.0186 -0.1011643,-0.0224 -0.090817,-0.008 -0.2182717,7e-5 -0.3419156,0.0166 -0.1196913,0.016 -0.2349575,0.0395 -0.32392,0.0593 a 0.24901964,0.24901964 0 0 1 -0.2451287,0.20477 0.24901964,0.24901964 0 0 1 -0.2490195,-0.24903 0.24901964,0.24901964 0 0 1 0.2490195,-0.24902 0.24901964,0.24901964 0 0 1 0.1585553,0.0574 c 0.097761,-0.0225 0.2278579,-0.0494 0.3788796,-0.0696 0.066878,-0.008 0.1347644,-0.0156 0.2013558,-0.019 z"
       id="rect3729"
       inkscape:connector-curvature="0" />
  </g>
</svg>
