<?xml version="1.0" encoding="UTF-8" standalone="no"?>
<!-- Created with Inkscape (http://www.inkscape.org/) -->

<svg
   xmlns:dc="http://purl.org/dc/elements/1.1/"
   xmlns:cc="http://creativecommons.org/ns#"
   xmlns:rdf="http://www.w3.org/1999/02/22-rdf-syntax-ns#"
   xmlns:svg="http://www.w3.org/2000/svg"
   xmlns="http://www.w3.org/2000/svg"
   xmlns:sodipodi="http://sodipodi.sourceforge.net/DTD/sodipodi-0.dtd"
   xmlns:inkscape="http://www.inkscape.org/namespaces/inkscape"
   width="64"
   height="64"
   viewBox="0 0 16.933333 16.933334"
   version="1.1"
   id="svg8"
   inkscape:version="0.92.4 (5da689c313, 2019-01-14)"
   sodipodi:docname="Pin-diet-vgl.svg">
  <defs
     id="defs2" />
  <sodipodi:namedview
     id="base"
     pagecolor="#ffffff"
     bordercolor="#666666"
     borderopacity="1.0"
     inkscape:pageopacity="0.0"
     inkscape:pageshadow="2"
     inkscape:zoom="3.959798"
     inkscape:cx="-9.9601824"
     inkscape:cy="41.222277"
     inkscape:document-units="px"
     inkscape:current-layer="layer1"
     showgrid="false"
     units="px"
     inkscape:pagecheckerboard="true"
     objecttolerance="20"
     inkscape:window-width="1366"
     inkscape:window-height="705"
     inkscape:window-x="-8"
     inkscape:window-y="32"
     inkscape:window-maximized="1">
    <inkscape:grid
       type="xygrid"
       id="grid3725" />
  </sodipodi:namedview>
  <metadata
     id="metadata5">
    <rdf:RDF>
      <cc:Work
         rdf:about="">
        <dc:format>image/svg+xml</dc:format>
        <dc:type
           rdf:resource="http://purl.org/dc/dcmitype/StillImage" />
        <dc:title />
      </cc:Work>
    </rdf:RDF>
  </metadata>
  <g
     inkscape:label="Calque 1"
     inkscape:groupmode="layer"
     id="layer1"
     transform="translate(0,-280.06665)">
    <path
       style="fill:#71c837;fill-opacity:1;stroke:#ffffff;stroke-width:1.0583334;stroke-linecap:round;stroke-linejoin:round;stroke-miterlimit:4;stroke-dasharray:none;stroke-opacity:1;paint-order:stroke fill markers"
       d="m 1.5213547,280.59589 c -0.549672,0 -0.992188,0.41105 -0.992188,0.92146 v 11.05553 c 0,0.51041 0.442516,0.92145 0.992188,0.92145 h 6.945312 v 2.97656 l 2.9765643,-2.97656 h 3.96875 c 0.549672,0 0.992187,-0.41104 0.992187,-0.92145 v -11.05553 c 0,-0.51041 -0.442515,-0.92146 -0.992187,-0.92146 z m 8.284378,1.67432 c 0.1944793,-0.001 0.3773313,0.0642 0.5212863,0.18604 0.575823,0.48722 0.08879,1.12935 -0.199115,0.90789 -0.2879133,-0.22148 -1.6612373,0.95246 -1.6612373,0.95246 0.06644,-1.44511 0.75563,-2.04328 1.339066,-2.04639 z m -2.643734,2.11518 a 2.9765625,3.4726563 0 0 1 1.240719,0.31975 2.9765625,3.4726563 0 0 1 1.239749,-0.31975 2.9765625,3.4726563 0 0 1 2.9765643,3.47266 2.9765625,3.4726563 0 0 1 -2.9765643,3.47265 2.9765625,3.4726563 0 0 1 -1.240718,-0.32023 2.9765625,3.4726563 0 0 1 -1.23975,0.32023 2.9765625,3.4726563 0 0 1 -2.976563,-3.47265 2.9765625,3.4726563 0 0 1 2.976563,-3.47266 z"
       id="rect3729"
       inkscape:connector-curvature="0" />
  </g>
</svg>
